<svg width="242" height="79" viewBox="0 0 242 79" fill="none" xmlns="http://www.w3.org/2000/svg">
<path d="M231.12 68.29C230.49 63.58 236.85 62.5 236.85 59.59C236.85 57.79 235.41 56.77 233.07 56.77C231.21 56.77 229.74 57.58 228.27 59.14L225.81 56.86C227.7 54.64 230.34 53.2 233.55 53.2C237.9 53.2 241.08 55.21 241.08 59.2C241.08 63.61 234.54 64.12 234.99 68.29H231.12ZM233.07 76.27C231.54 76.27 230.43 75.19 230.43 73.63C230.43 72.04 231.57 70.96 233.07 70.96C234.6 70.96 235.71 72.04 235.71 73.63C235.71 75.19 234.6 76.27 233.07 76.27Z" fill="#B65A0F"/>
<path d="M202.14 63.1599H196.44V66.4599H202.14V63.1599ZM200.04 74.6799H209.58C212.04 74.6799 212.49 74.1399 212.82 71.3199C213.69 71.8599 215.25 72.3999 216.24 72.5499C215.64 76.7799 214.44 78.0099 209.82 78.0099H200.04C194.52 78.0099 192.9 76.9299 192.9 72.7299V61.4499C192.24 62.1099 191.58 62.7099 190.95 63.2499C190.32 62.5299 188.85 61.1799 188.04 60.5499C191.25 58.2099 194.25 54.3999 195.87 50.4099L199.56 51.5199C199.11 52.5399 198.6 53.4999 198.03 54.4899H213.87C213.87 54.4899 213.84 55.5399 213.81 55.9899C213.54 65.4099 213.27 68.9199 212.43 70.0899C211.83 70.9899 211.14 71.2899 210.24 71.4399C209.43 71.5899 208.17 71.6199 206.79 71.5599C206.76 70.5399 206.4 69.0699 205.86 68.1699C206.88 68.2599 207.78 68.2899 208.29 68.2599C208.71 68.2899 208.98 68.1699 209.22 67.8099C209.7 67.2099 209.97 64.6599 210.18 57.8499H195.87C195.3 58.6299 194.73 59.3499 194.16 60.0399H205.62V69.6399H196.44V72.6699C196.44 74.4099 196.92 74.6799 200.04 74.6799Z" fill="#B65A0F"/>
<path d="M181.5 70.5099V59.2599H180.09V70.5099H181.5ZM173.4 59.2599V70.5099H174.72V59.2599H173.4ZM178.11 61.4499V59.2599H176.7V61.4499H178.11ZM176.7 68.1999V70.5099H178.11V68.1999H176.7ZM178.11 65.9799V63.6699H176.7V65.9799H178.11ZM170.79 56.7399H175.62C175.68 56.0499 175.74 55.2999 175.77 54.6099H170.25V51.9099H184.53V54.6099H179.1C178.95 55.3599 178.74 56.0799 178.56 56.7399H184.2V73.9599H181.5V73.0299H173.4V73.9899H170.79V56.7399ZM159.09 55.7799L161.13 56.3499C160.98 56.8599 160.83 57.3699 160.65 57.8799C161.28 58.4799 161.97 59.2299 162.33 59.7099L160.92 61.2999C160.68 60.8799 160.23 60.3399 159.78 59.8299C159.27 60.7899 158.7 61.7199 158.1 62.4399C157.89 61.9899 157.23 60.9399 156.81 60.4899C157.8 59.2599 158.61 57.5199 159.09 55.7799ZM170.31 63.0699L168.78 65.4999C167.73 64.5999 165.51 63.0699 164.1 62.1399C162.6 63.6699 160.47 65.1099 158.55 65.9199C158.1 65.2299 157.26 64.2399 156.66 63.7299C158.67 63.0999 161.01 61.8099 162.39 60.6099V55.4499H157.47V52.8699H162.39V50.6199H165.36V52.8699H169.86V55.4499H165.36V59.8899C166.14 58.7199 166.71 57.1899 167.07 55.7199L169.11 56.2299C168.96 56.7399 168.78 57.2799 168.6 57.7899C169.35 58.4199 170.13 59.2299 170.55 59.7699L169.11 61.3299C168.81 60.9099 168.3 60.3099 167.76 59.7399C167.52 60.2199 167.28 60.6399 167.04 60.9999C166.68 60.6999 165.84 60.1899 165.36 59.9499V60.3399C166.59 60.9399 169.5 62.5899 170.31 63.0699ZM165.69 68.6799H162.66C162.33 69.1599 162 69.6399 161.64 70.0599C162.18 70.8699 162.75 71.5299 163.41 72.0699C164.31 71.1099 165.09 69.9399 165.69 68.6799ZM167.52 66.0699L169.38 66.9099C168.6 69.6099 167.34 71.8599 165.78 73.6899C168.27 74.8899 171.33 75.1599 174.81 75.1599C176.49 75.1599 183.21 75.1599 185.22 75.0999C184.71 75.8199 184.14 77.3199 183.96 78.2199H174.75C170.22 78.2199 166.53 77.7399 163.56 75.8499C162.03 77.0499 160.35 78.0099 158.55 78.6999C158.22 77.9799 157.38 76.7199 156.81 76.2399C158.43 75.6699 159.96 74.9199 161.28 73.9599C160.8 73.3899 160.29 72.7599 159.84 72.0699C159.39 72.4899 158.94 72.8799 158.46 73.2399C158.19 72.6099 157.41 71.2899 156.93 70.6899C157.47 70.2999 157.95 69.8799 158.43 69.4299C158.1 68.6199 157.83 67.7499 157.53 66.8499L159.75 66.0099C159.9 66.4899 160.08 66.9399 160.23 67.3599C160.95 66.3399 161.55 65.1999 162 64.0599L164.67 64.7499C164.49 65.2299 164.28 65.7099 164.07 66.1599H167.01L167.52 66.0699Z" fill="#B65A0F"/>
<path d="M129.12 51.4L132.33 52.09C131.4 56.74 129.78 61.33 127.77 64.27C127.23 63.64 126 62.41 125.28 61.87C127.08 59.38 128.4 55.39 129.12 51.4ZM139.71 74.29L136.59 75.49C136.5 75.07 136.41 74.59 136.29 74.08C129.48 75.49 128.31 75.85 127.56 76.3C127.38 75.61 126.84 73.93 126.48 73.03C127.08 72.82 127.53 72.04 128.07 70.72C128.64 69.46 130.26 64.63 131.04 60.19L134.49 61.03C133.59 64.87 132.3 68.86 130.95 72.13L135.57 71.26C135.09 69.64 134.49 67.9 133.92 66.4L136.8 65.41C138 68.26 139.23 71.98 139.71 74.29ZM133.32 52.39L136.23 51.25C137.85 54.55 139.56 58.81 140.13 61.6L136.92 62.95C136.41 60.22 134.85 55.81 133.32 52.39ZM143.28 68.05V69.67H149.07V68.05H143.28ZM149.07 61.42V59.83H143.28V61.42H149.07ZM149.07 65.56V63.91H143.28V65.56H149.07ZM152.37 72.34H149.04C150.72 73.39 152.91 74.8 153.99 75.82L152.19 78.43C151.02 77.26 148.65 75.58 146.88 74.38L148.38 72.34H143.13L145.8 74.23C144.3 75.91 141.81 77.5 139.59 78.46C139.17 77.74 138.45 76.63 137.85 75.91C139.71 75.1 141.87 73.6 142.98 72.34H140.13V57.16H143.61C143.91 56.5 144.21 55.81 144.45 55.18H138.84V52H153.48V55.18H148.14C147.78 55.87 147.42 56.53 147.03 57.16H152.37V72.34Z" fill="#B65A0F"/>
<path d="M107.07 62.9499H101.37V67.7499H107.07V62.9499ZM110.61 71.1699H101.37V73.4499H97.89V59.5599H110.61V71.1699ZM122.16 52.5999V56.1999H118.71V74.0799C118.71 76.2399 118.2 77.2899 116.79 77.8899C115.29 78.4899 113.07 78.5499 110.01 78.5499C109.8 77.4999 109.08 75.7299 108.54 74.7699C110.67 74.8899 113.28 74.8599 114 74.8599C114.69 74.8599 114.96 74.6499 114.96 74.0199V56.1999H95.13V52.5999H122.16Z" fill="#B65A0F"/>
<path d="M67.92 72.3699H72.69V66.4898H67.92V72.3699ZM72.69 63.3998V58.5398H67.92V63.3998H72.69ZM82.23 55.2098H90.66C90.66 55.2098 90.66 56.4098 90.63 56.8298C90.24 70.2398 89.91 75.0098 88.68 76.5998C87.84 77.7098 87 78.0398 85.8 78.2498C84.66 78.3998 82.86 78.3698 81.09 78.3098C81.03 77.3198 80.55 75.8198 79.92 74.8298C81.84 75.0098 83.61 75.0098 84.39 75.0098C84.99 75.0098 85.32 74.8898 85.71 74.4998C86.58 73.5398 86.97 69.0398 87.3 58.4498H80.88C80.1 60.2498 79.17 61.8998 78.24 63.1898C77.76 62.7398 76.74 62.0498 75.93 61.5098V75.5198H67.92V77.7098H64.68V55.4198H68.07C68.46 53.9198 68.82 51.9998 68.94 50.5898L72.84 51.1298C72.33 52.6298 71.79 54.1298 71.28 55.4198H75.93V60.2798C77.67 57.7598 79.11 54.1298 79.98 50.6198L83.4 51.3998C83.07 52.6898 82.68 53.9498 82.23 55.2098ZM85.68 68.8898L82.65 70.7498C81.81 68.9498 79.95 66.0098 78.48 63.8198L81.27 62.2298C82.77 64.2998 84.75 67.1498 85.68 68.8898Z" fill="#B65A0F"/>
<path d="M44.7 56.8001V59.5301H41.61V53.8301H48.9C48.54 52.9601 48.18 52.0901 47.79 51.3101L51.09 50.3201C51.66 51.4301 52.29 52.7501 52.74 53.8301H59.94V59.4401H56.67V56.8001H54.78V60.8501C54.78 61.6601 54.87 61.9301 55.38 61.9301H57.81C58.35 61.9301 59.22 61.8701 59.67 61.7501C59.76 62.5601 59.82 63.7901 59.97 64.5401C59.46 64.7201 58.62 64.7801 57.87 64.7801H55.26C52.26 64.7801 51.57 63.6701 51.57 60.8201V56.8001H50.07C49.86 61.4201 48.81 64.0901 43.41 65.4401C43.14 64.6901 42.36 63.4601 41.73 62.9201C46.05 61.9601 46.71 60.2501 46.86 56.8001H44.7ZM41.97 67.2101L38.82 68.2301V74.8301C38.82 76.4801 38.52 77.3801 37.62 77.9501C36.72 78.5201 35.43 78.6401 33.48 78.6101C33.39 77.7401 33 76.2701 32.58 75.3101C33.66 75.3701 34.68 75.3701 35.04 75.3401C35.4 75.3401 35.55 75.2201 35.55 74.8301V69.2501L32.7 70.1801L32.01 66.7301C33.03 66.4901 34.23 66.1301 35.55 65.7701V59.5901H32.43V56.2901H35.55V50.6201H38.82V56.2901H41.28V59.5901H38.82V64.8101L41.4 64.0301L41.97 67.2101ZM52.38 74.5601H60.15V77.7701H41.16V74.5601H48.87V69.7601H42.9V66.5501H58.59V69.7601H52.38V74.5601Z" fill="#B65A0F"/>
<path d="M28.5 67.2999H18.06C20.16 71.3499 23.85 74.0798 29.43 75.2198C28.59 75.9998 27.51 77.5898 27.03 78.6098C21.18 77.0798 17.55 73.9898 15.12 69.2798C13.44 73.0898 10.02 76.4799 3.24001 78.5499C2.82001 77.7099 1.74001 76.1498 0.960007 75.3998C7.26001 73.5698 10.29 70.5999 11.73 67.2999H1.53001V63.6998H12.75C12.93 62.4998 12.99 61.2698 12.99 60.0998V58.9598H7.23001C6.48001 60.4598 5.64001 61.8098 4.80001 62.8598C3.99001 62.2898 2.28001 61.3598 1.32001 60.9398C3.51001 58.6298 5.25001 54.7598 6.18001 50.9198L9.96001 51.7298C9.63001 52.9598 9.24001 54.1598 8.82001 55.3298H12.99V50.5898H16.74V55.3298H25.95V58.9598H16.74V60.0998C16.74 61.2698 16.71 62.4998 16.56 63.6998H28.5V67.2999Z" fill="#B65A0F"/>
<path d="M140.73 25.3901H143.4V23.8601H140.73V25.3901ZM140.73 20.2901V21.7601H143.4V20.2901H140.73ZM149.58 20.2901H146.82V21.7601H149.58V20.2901ZM149.58 25.3901V23.8601H146.82V25.3901H149.58ZM146.82 33.2801H153.9V36.1001H135.75V33.2801H143.4V31.9301H137.43V29.2301H143.4V27.8501H137.64V25.2101L135.66 27.9101C135.3 27.1301 134.58 25.9601 133.86 24.8801V36.5801H130.41V25.8101C129.45 28.1201 128.31 30.2501 127.14 31.7501C126.81 30.7301 126.06 29.2601 125.49 28.3601C127.17 26.4101 128.82 23.2301 129.93 20.3201H126.12V16.9901H130.41V13.5101C129.15 13.7501 127.92 13.9601 126.75 14.1101C126.57 13.3001 126.15 12.1001 125.76 11.3801C129.06 10.8101 132.75 9.94008 135.06 8.89008L137.43 11.6201C136.35 12.0401 135.15 12.4301 133.86 12.7601V16.9901H137.07V20.3201H133.86V21.1901C134.64 21.8501 136.98 24.2801 137.64 25.0601V17.8001H143.4V16.5701H136.65V13.8101H143.4V12.5501C141.45 12.6401 139.53 12.7001 137.73 12.7301C137.67 11.9501 137.28 10.7801 136.95 10.0601C141.87 9.91008 147.66 9.52008 151.17 8.83008L153.21 11.5001C151.35 11.8601 149.13 12.1301 146.82 12.3101V13.8101H153.27V16.5701H146.82V17.8001H152.79V27.8501H146.82V29.2301H152.79V31.9301H146.82V33.2801Z" fill="#B65A0F"/>
<path d="M94.83 20.3799H122.43V24.2499H94.83V20.3799Z" fill="#B65A0F"/>
<path d="M68.7 14.5001H67.02V25.5401H68.7V14.5001ZM71.37 28.7801H67.02V31.6001H64.38V11.2301H71.37V28.7801ZM76.77 23.9801H78.48C78.48 22.7501 78.51 21.4001 78.51 19.8701H76.95C76.95 21.1301 76.89 22.5101 76.77 23.9801ZM76.95 12.9101V16.8701H78.54L78.57 12.9101H76.95ZM72.21 9.91007H81.45C81.45 9.91007 81.45 11.0801 81.42 11.4401C81.3 27.9401 81.3 33.5201 80.55 34.9001C80.01 35.8601 79.5 36.1901 78.69 36.3701C77.91 36.5501 77.04 36.5501 75.96 36.5201C75.93 35.5901 75.63 34.2701 75.18 33.4001C75.96 33.4601 76.65 33.4601 77.1 33.4601C77.49 33.4901 77.7 33.3401 77.91 32.8301C78.18 32.3201 78.33 30.6701 78.42 26.9801H76.35C75.72 30.4601 74.52 34.0301 72.15 36.6701C71.76 36.0701 70.65 34.9301 70.08 34.5401C72 32.3501 72.99 29.6801 73.53 26.9801H72.18V23.9801H73.95C74.07 22.5401 74.1 21.1601 74.1 19.8701H72.21V16.8701H74.1V12.9101H72.21V9.91007ZM89.04 9.82007L91.23 11.0501C90.54 14.0201 89.64 18.0401 88.92 20.6201C90.45 23.2301 90.72 25.5701 90.75 27.6101C90.75 29.6801 90.36 31.0301 89.52 31.7201C89.16 32.0501 88.62 32.2601 87.99 32.3501C87.57 32.4101 87.03 32.4401 86.46 32.4401C86.46 31.5701 86.28 30.3401 85.83 29.4701H86.76C87 29.4701 87.24 29.3801 87.45 29.1701C87.72 28.8701 87.84 28.1201 87.84 27.1001C87.84 25.4201 87.63 23.2901 86.25 20.8901C86.76 18.6101 87.39 15.1601 87.78 12.7901H85.59V36.6401H82.68V9.91007H88.62L89.04 9.82007Z" fill="#B65A0F"/>
<path d="M52.98 13.6299V12.1299H39.24V13.6299H52.98ZM52.98 17.4999V15.9699H39.24V17.4999H52.98ZM56.61 9.60986V20.0199H35.79V9.60986H56.61ZM48.33 29.8299V32.7399C49.11 32.7999 49.92 32.8299 50.73 32.8299C52.41 32.8299 58.17 32.8299 60.3 32.7399C59.82 33.5499 59.28 35.1099 59.1 36.1299H50.55C45.06 36.1299 41.34 35.3799 38.82 31.8999C37.74 33.8799 36.36 35.4699 34.62 36.6699C34.11 36.0099 32.73 34.6899 31.92 34.1799C34.98 32.2899 36.81 29.1099 37.5 25.0899L41.07 25.6299C40.86 26.5899 40.62 27.4899 40.38 28.3599C41.31 30.3999 42.78 31.5099 44.7 32.1099V24.4899H33V21.3399H59.46V24.4899H48.33V26.7399H57.57V29.8299H48.33Z" fill="#B65A0F"/>
<path d="M7.17 8.70996L10.56 9.75996C9.78 11.83 8.82 13.93 7.71 15.91V36.55H4.29V21.22C3.63 22.12 2.94 22.93 2.28 23.65C1.95 22.75 0.960001 20.8 0.360001 19.93C3.06 17.23 5.67 12.97 7.17 8.70996ZM12.72 21.94L16.2 22.66C15.33 26.47 13.8 30.25 12.12 32.68C11.43 32.11 9.93 31.21 9.06 30.76C10.77 28.66 12.03 25.27 12.72 21.94ZM25.2 17.26H21.18V32.62C21.18 34.33 20.88 35.32 19.8 35.92C18.75 36.49 17.31 36.64 15.39 36.64C15.24 35.59 14.7 34 14.16 33.04C15.42 33.07 16.68 33.07 17.1 33.07C17.49 33.07 17.64 32.95 17.64 32.56V17.26H14.16C13.32 19 12.33 20.59 11.34 21.85C10.71 21.22 9.27 20.05 8.46 19.51C10.74 16.96 12.54 12.82 13.56 8.70996L17.04 9.48996C16.65 11.02 16.17 12.49 15.63 13.96H25.95L26.52 13.84L29.04 14.32C28.68 16.75 28.17 19.54 27.75 21.28L24.72 20.77C24.87 19.84 25.05 18.58 25.2 17.26ZM22.26 22.72L25.44 21.64C27 24.73 28.29 28.72 28.71 31.42L25.29 32.59C24.96 29.92 23.7 25.81 22.26 22.72Z" fill="#B65A0F"/>
<ellipse cx="14.2785" cy="8.45316" rx="14.2785" ry="8.45316" transform="matrix(-0.77313 -0.634248 -0.634248 0.77313 236.866 32.554)" fill="#F3BD13"/>
<ellipse cx="182.401" cy="30.0332" rx="14.2785" ry="8.45316" transform="rotate(-39.3642 182.401 30.0332)" fill="#F3BD13"/>
<g filter="url(#filter0_d_1508_2005)">
<path d="M208.944 15.161C210.656 12.0065 214.477 10.6588 217.789 12.0413L222.364 13.9513C225.676 15.3338 227.405 18.9982 226.366 22.4335L222.501 35.2097C221.301 39.1772 216.934 41.2373 213.109 39.6405L206.032 36.6863C202.207 35.0896 200.601 30.5361 202.578 26.893L208.944 15.161Z" fill="#F3BD13"/>
</g>
<g filter="url(#filter1_d_1508_2005)">
<path d="M193.922 15.161C192.21 12.0065 188.389 10.6588 185.077 12.0413L180.502 13.9513C177.19 15.3338 175.461 18.9982 176.501 22.4335L180.365 35.2097C181.565 39.1772 185.932 41.2373 189.757 39.6405L196.834 36.6863C200.659 35.0896 202.265 30.5361 200.288 26.893L193.922 15.161Z" fill="#F3BD13"/>
</g>
<g filter="url(#filter2_d_1508_2005)">
<path d="M190.069 12.6747C189.669 8.56211 192.901 5 197.033 5H205.865C209.997 5 213.229 8.56211 212.828 12.6747L210.693 34.597C210.344 38.1814 207.331 40.9152 203.73 40.9152H199.168C195.567 40.9152 192.554 38.1814 192.204 34.597L190.069 12.6747Z" fill="#F3BD13"/>
</g>
<path d="M188.376 20.7221C188.376 19.6972 189.206 18.8665 190.231 18.8665H194.399C195.424 18.8665 196.254 19.6972 196.254 20.7221V22.968C196.254 25.1437 194.491 26.9074 192.315 26.9074V26.9074C190.139 26.9074 188.376 25.1437 188.376 22.968V20.7221Z" fill="#FFEDB2"/>
<path d="M206.654 20.7221C206.654 19.6972 207.485 18.8665 208.51 18.8665H212.677C213.702 18.8665 214.533 19.6972 214.533 20.7221V22.968C214.533 25.1437 212.769 26.9074 210.594 26.9074V26.9074C208.418 26.9074 206.654 25.1437 206.654 22.968V20.7221Z" fill="#FFEDB2"/>
<defs>
<filter id="filter0_d_1508_2005" x="197.065" y="6.83593" width="34.2664" height="38.0115" filterUnits="userSpaceOnUse" color-interpolation-filters="sRGB">
<feFlood flood-opacity="0" result="BackgroundImageFix"/>
<feColorMatrix in="SourceAlpha" type="matrix" values="0 0 0 0 0 0 0 0 0 0 0 0 0 0 0 0 0 0 127 0" result="hardAlpha"/>
<feOffset/>
<feGaussianBlur stdDeviation="2.33216"/>
<feComposite in2="hardAlpha" operator="out"/>
<feColorMatrix type="matrix" values="0 0 0 0 1 0 0 0 0 1 0 0 0 0 1 0 0 0 0.1 0"/>
<feBlend mode="normal" in2="BackgroundImageFix" result="effect1_dropShadow_1508_2005"/>
<feBlend mode="normal" in="SourceGraphic" in2="effect1_dropShadow_1508_2005" result="shape"/>
</filter>
<filter id="filter1_d_1508_2005" x="171.535" y="6.83593" width="34.2664" height="38.0115" filterUnits="userSpaceOnUse" color-interpolation-filters="sRGB">
<feFlood flood-opacity="0" result="BackgroundImageFix"/>
<feColorMatrix in="SourceAlpha" type="matrix" values="0 0 0 0 0 0 0 0 0 0 0 0 0 0 0 0 0 0 127 0" result="hardAlpha"/>
<feOffset/>
<feGaussianBlur stdDeviation="2.33216"/>
<feComposite in2="hardAlpha" operator="out"/>
<feColorMatrix type="matrix" values="0 0 0 0 1 0 0 0 0 1 0 0 0 0 1 0 0 0 0.1 0"/>
<feBlend mode="normal" in2="BackgroundImageFix" result="effect1_dropShadow_1508_2005"/>
<feBlend mode="normal" in="SourceGraphic" in2="effect1_dropShadow_1508_2005" result="shape"/>
</filter>
<filter id="filter2_d_1508_2005" x="185.371" y="0.335684" width="32.1552" height="45.2439" filterUnits="userSpaceOnUse" color-interpolation-filters="sRGB">
<feFlood flood-opacity="0" result="BackgroundImageFix"/>
<feColorMatrix in="SourceAlpha" type="matrix" values="0 0 0 0 0 0 0 0 0 0 0 0 0 0 0 0 0 0 127 0" result="hardAlpha"/>
<feOffset/>
<feGaussianBlur stdDeviation="2.33216"/>
<feComposite in2="hardAlpha" operator="out"/>
<feColorMatrix type="matrix" values="0 0 0 0 1 0 0 0 0 1 0 0 0 0 1 0 0 0 0.1 0"/>
<feBlend mode="normal" in2="BackgroundImageFix" result="effect1_dropShadow_1508_2005"/>
<feBlend mode="normal" in="SourceGraphic" in2="effect1_dropShadow_1508_2005" result="shape"/>
</filter>
</defs>
</svg>
